<svg width="13" height="13" viewBox="0 0 13 13" fill="#ffffff" xmlns="http://www.w3.org/2000/svg">
<g clip-path="url(#clip0_2_1206)">
<path d="M3.79458 0.215511C3.13131 0.246804 2.67836 0.352654 2.28239 0.508248C1.87258 0.667957 1.52524 0.882274 1.17964 1.22912C0.834038 1.57597 0.621217 1.92356 0.46263 2.33399C0.309154 2.73084 0.205175 3.18415 0.175877 3.8478C0.146578 4.51145 0.140095 4.72477 0.143336 6.41761C0.146578 8.11045 0.154058 8.32265 0.186225 8.98767C0.217892 9.65082 0.323367 10.1036 0.478962 10.4997C0.638921 10.9095 0.852988 11.2568 1.19996 11.6025C1.54693 11.9482 1.89428 12.1605 2.3057 12.3194C2.70217 12.4726 3.15562 12.5771 3.81914 12.6061C4.48266 12.6352 4.69623 12.6419 6.38857 12.6387C8.08092 12.6354 8.29399 12.6279 8.95888 12.5964C9.62377 12.5649 10.0742 12.4586 10.4704 12.3038C10.8802 12.1434 11.2277 11.9298 11.5732 11.5827C11.9187 11.2356 12.1314 10.8877 12.2898 10.477C12.4434 10.0806 12.5478 9.62713 12.5766 8.9641C12.6056 8.29871 12.6125 8.08626 12.6092 6.39367C12.606 4.70108 12.5984 4.48888 12.5669 3.82411C12.5353 3.15934 12.4297 2.7079 12.2742 2.31155C12.114 1.90174 11.9002 1.55477 11.5534 1.2088C11.2065 0.862825 10.8584 0.650254 10.4479 0.492165C10.0512 0.33869 9.59796 0.234087 8.93444 0.205412C8.27092 0.176737 8.05735 0.169381 6.36439 0.172622C4.67142 0.175864 4.45947 0.183095 3.79458 0.215511ZM3.86739 11.4847C3.2596 11.4582 2.92958 11.3572 2.70965 11.2727C2.41841 11.1605 2.21095 11.0249 1.99177 10.8078C1.77259 10.5907 1.63794 10.3825 1.52424 10.0919C1.43884 9.87199 1.33598 9.54235 1.30755 8.93456C1.27663 8.27764 1.27015 8.0804 1.26654 6.41611C1.26292 4.75182 1.26928 4.55484 1.29808 3.89767C1.32401 3.29038 1.42562 2.95999 1.51003 2.74019C1.62223 2.44857 1.75738 2.24148 1.97494 2.02243C2.1925 1.80338 2.40008 1.66848 2.69095 1.55477C2.91063 1.469 3.24027 1.36701 3.84781 1.33809C4.50523 1.30692 4.70221 1.30068 6.36626 1.29707C8.0303 1.29345 8.22778 1.29969 8.88544 1.32861C9.49274 1.35504 9.82325 1.45566 10.0428 1.54056C10.3342 1.65277 10.5415 1.78754 10.7606 2.00547C10.9796 2.22341 11.1146 2.43024 11.2283 2.72173C11.3142 2.94079 11.4162 3.27031 11.4449 3.87822C11.4762 4.53564 11.4833 4.73275 11.4863 6.39666C11.4893 8.06058 11.4834 8.25819 11.4546 8.91511C11.4281 9.5229 11.3273 9.85304 11.2427 10.0732C11.1305 10.3643 10.9952 10.5719 10.7775 10.7908C10.5598 11.0098 10.3525 11.1447 10.0615 11.2584C9.84208 11.344 9.51206 11.4463 8.90502 11.4752C8.24761 11.5061 8.05062 11.5126 6.38595 11.5162C4.72129 11.5198 4.52493 11.5131 3.86751 11.4847M8.94928 3.07394C8.94952 3.2219 8.99365 3.36647 9.07606 3.48935C9.15847 3.61224 9.27548 3.70792 9.41227 3.7643C9.54907 3.82069 9.69952 3.83524 9.84458 3.80611C9.98965 3.77698 10.1228 3.70549 10.2273 3.60068C10.3317 3.49586 10.4027 3.36243 10.4313 3.21726C10.4599 3.07208 10.4448 2.92169 10.3879 2.7851C10.331 2.64851 10.2349 2.53186 10.1117 2.4499C9.98852 2.36794 9.84379 2.32435 9.69583 2.32464C9.49748 2.32504 9.30741 2.4042 9.16741 2.54471C9.02741 2.68523 8.94895 2.87559 8.94928 3.07394ZM3.17556 6.41187C3.17906 8.17977 4.61482 9.60967 6.38234 9.60631C8.14986 9.60294 9.58076 8.1673 9.57739 6.39941C9.57403 4.63151 8.13789 3.20124 6.37012 3.20473C4.60235 3.20822 3.1722 4.64423 3.17556 6.41187ZM4.29839 6.40963C4.29758 5.99865 4.41865 5.59666 4.64631 5.25449C4.87396 4.91232 5.19796 4.64534 5.57735 4.48731C5.95674 4.32928 6.37446 4.2873 6.7777 4.36669C7.18095 4.44607 7.5516 4.64324 7.84278 4.93327C8.13396 5.2233 8.3326 5.59317 8.41358 5.99609C8.49456 6.39902 8.45423 6.81691 8.29771 7.19692C8.14119 7.57693 7.87549 7.90199 7.53423 8.13099C7.19296 8.36 6.79145 8.48267 6.38047 8.48348C6.10758 8.48405 5.83725 8.43086 5.58491 8.32695C5.33258 8.22303 5.10319 8.07042 4.90985 7.87784C4.7165 7.68526 4.56299 7.45648 4.45807 7.20456C4.35316 6.95264 4.2989 6.68252 4.29839 6.40963Z" fill="#fffff"/>
</g>
<defs>
<clipPath id="clip0_2_1206">
<rect width="12.4675" height="12.4675" fill="#fffff" transform="translate(0.142578 0.171913)"/>
</clipPath>
</defs>
</svg>
